<?xml version="1.0" encoding="UTF-8" standalone="no" ?>
<!DOCTYPE svg PUBLIC "-//W3C//DTD SVG 1.1//EN" "http://www.w3.org/Graphics/SVG/1.1/DTD/svg11.dtd">
<svg xmlns="http://www.w3.org/2000/svg" xmlns:xlink="http://www.w3.org/1999/xlink" version="1.1" width="1080" height="1080" viewBox="0 0 1080 1080" xml:space="preserve">
<desc>Created with Fabric.js 5.2.4</desc>
<defs>
</defs>
<g transform="matrix(1 0 0 1 540 540)" id="3eca295b-96cc-412d-88eb-c9896f2ddde7"  >
<rect style="stroke: none; stroke-width: 1; stroke-dasharray: none; stroke-linecap: butt; stroke-dashoffset: 0; stroke-linejoin: miter; stroke-miterlimit: 4; fill: rgb(255,255,255); fill-rule: nonzero; opacity: 1; visibility: hidden;" vector-effect="non-scaling-stroke"  x="-540" y="-540" rx="0" ry="0" width="1080" height="1080" />
</g>
<g transform="matrix(1 0 0 1 540 540)" id="e0e352d8-c3c9-444b-8516-ad969d5a0230"  >
</g>
<g transform="matrix(0.13 0 0 -0.13 544.14 386.27)"  >
<path style="stroke: none; stroke-width: 1; stroke-dasharray: none; stroke-linecap: butt; stroke-dashoffset: 0; stroke-linejoin: miter; stroke-miterlimit: 4; fill: rgb(231,10,10); fill-rule: nonzero; opacity: 1;" vector-effect="non-scaling-stroke"  transform=" translate(-5151.56, -6474.94)" d="M 4036 7135 C 4065 7102 4113 7051 4143 7022 L 4199 6970 L 4122 6931 C 3966 6853 3809 6815 3674 6822 L 3587 6827 L 3716 6762 L 3845 6698 L 4058 6481 C 4226 6310 4264 6276 4241 6316 C 4165 6443 4134 6544 4152 6607 C 4160 6636 4176 6651 4252 6700 C 4355 6767 4409 6783 4516 6778 L 4585 6775 L 4592 6719 C 4603 6629 4638 6505 4678 6412 C 4797 6138 5012 5966 5300 5916 L 5375 5903 L 5280 5896 C 5228 5892 5101 5883 4998 5876 L 4810 5864 L 4713 5925 C 4588 6003 4531 6035 4550 6018 C 4559 6011 4609 5970 4663 5926 C 4721 5880 4757 5843 4753 5836 C 4750 5830 4738 5812 4727 5797 C 4717 5781 4710 5767 4712 5765 C 4714 5763 4744 5769 4778 5780 C 4834 5798 4990 5823 4998 5816 C 4999 5814 4995 5801 4989 5786 C 4972 5749 4983 5745 5027 5774 C 5098 5821 5274 5857 5672 5906 C 5833 5925 5848 5929 5765 5925 L 5665 5920 L 5720 5942 C 5933 6024 6061 6208 6093 6476 L 6104 6566 L 6164 6558 C 6224 6549 6226 6548 6312 6457 L 6399 6365 L 6375 6429 C 6361 6465 6351 6494 6353 6496 C 6354 6497 6407 6467 6470 6429 C 6577 6366 6707 6304 6716 6313 C 6719 6315 6664 6363 6595 6419 C 6526 6475 6470 6525 6470 6531 C 6470 6538 6482 6539 6503 6535 C 6567 6521 6522 6539 6355 6594 C 5883 6749 5394 6855 4887 6914 L 4759 6929 L 4633 7050 C 4564 7116 4505 7169 4503 7166 C 4501 7164 4514 7140 4533 7113 C 4567 7066 4624 6960 4618 6956 C 4616 6955 4554 6957 4480 6961 C 4373 6965 4334 6971 4290 6989 C 4232 7013 4105 7095 4030 7158 L 3985 7195 L 4036 7135 z M 5073 6705 C 5140 6697 5211 6687 5231 6684 L 5267 6679 L 5262 6599 C 5254 6465 5289 6343 5353 6280 C 5378 6256 5392 6250 5427 6250 C 5515 6250 5578 6360 5588 6528 C 5592 6611 5595 6620 5613 6620 C 5638 6620 5887 6564 5923 6551 C 5948 6541 5950 6537 5944 6498 C 5912 6266 5822 6139 5649 6079 C 5596 6061 5564 6057 5465 6057 C 5327 6058 5225 6080 5120 6132 C 5035 6174 4907 6300 4856 6392 C 4814 6467 4766 6600 4752 6680 L 4742 6733 L 4847 6726 C 4904 6722 5006 6713 5073 6705 z M 5437 6653 C 5567 6632 5569 6629 5552 6505 C 5539 6408 5515 6347 5475 6308 C 5441 6274 5420 6273 5382 6305 C 5325 6353 5288 6490 5298 6618 C 5303 6679 5293 6676 5437 6653 z" stroke-linecap="round" />
</g>
<g transform="matrix(0.13 0 0 -0.13 647.96 458.3)"  >
<path style="stroke: none; stroke-width: 1; stroke-dasharray: none; stroke-linecap: butt; stroke-dashoffset: 0; stroke-linejoin: miter; stroke-miterlimit: 4; fill: rgb(28,24,24); fill-rule: nonzero; opacity: 1;" vector-effect="non-scaling-stroke"  transform=" translate(-5930.18, -5934.75)" d="M 5918 5933 C 5924 5931 5936 5931 5943 5933 C 5949 5936 5944 5938 5930 5938 C 5916 5938 5911 5936 5918 5933 z" stroke-linecap="round" />
</g>
<g transform="matrix(0.13 0 0 -0.13 312.6 599.67)"  >
<path style="stroke: none; stroke-width: 1; stroke-dasharray: none; stroke-linecap: butt; stroke-dashoffset: 0; stroke-linejoin: miter; stroke-miterlimit: 4; fill: rgb(28,24,24); fill-rule: nonzero; opacity: 1;" vector-effect="non-scaling-stroke"  transform=" translate(-3415, -4874.5)" d="M 3132 5207 L 2990 5064 L 2992 4735 L 2995 4405 L 3088 4402 L 3180 4399 L 3180 4545 L 3180 4690 L 3415 4690 L 3649 4690 L 3652 4548 L 3655 4405 L 3745 4405 L 3835 4405 L 3838 4878 L 3840 5350 L 3557 5350 L 3275 5350 L 3132 5207 z M 3650 5020 L 3650 4880 L 3415 4880 L 3180 4880 L 3180 4921 C 3180 4958 3187 4969 3273 5061 L 3365 5160 L 3508 5160 L 3650 5160 L 3650 5020 z" stroke-linecap="round" />
</g>
<g transform="matrix(0.13 0 0 -0.13 443.38 599.67)"  >
<path style="stroke: none; stroke-width: 1; stroke-dasharray: none; stroke-linecap: butt; stroke-dashoffset: 0; stroke-linejoin: miter; stroke-miterlimit: 4; fill: rgb(28,24,24); fill-rule: nonzero; opacity: 1;" vector-effect="non-scaling-stroke"  transform=" translate(-4395.81, -4874.5)" d="M 3975 5338 C 3972 5331 3971 5118 3972 4865 L 3975 4405 L 4067 4402 L 4160 4399 L 4162 4715 L 4165 5030 L 4400 4717 L 4635 4405 L 4728 4402 L 4820 4399 L 4820 4875 L 4820 5350 L 4725 5350 L 4630 5350 L 4628 5040 L 4625 4729 L 4395 5037 L 4164 5345 L 4072 5348 C 4004 5350 3978 5347 3975 5338 z" stroke-linecap="round" />
</g>
<g transform="matrix(0.13 0 0 -0.13 530.04 599.67)"  >
<path style="stroke: none; stroke-width: 1; stroke-dasharray: none; stroke-linecap: butt; stroke-dashoffset: 0; stroke-linejoin: miter; stroke-miterlimit: 4; fill: rgb(28,24,24); fill-rule: nonzero; opacity: 1;" vector-effect="non-scaling-stroke"  transform=" translate(-5045.81, -4874.5)" d="M 4955 5338 C 4952 5331 4951 5118 4952 4865 L 4955 4405 L 5048 4402 L 5140 4399 L 5140 4875 L 5140 5350 L 5050 5350 C 4987 5350 4958 5346 4955 5338 z" stroke-linecap="round" />
</g>
<g transform="matrix(0.13 0 0 -0.13 629.93 599.67)"  >
<path style="stroke: none; stroke-width: 1; stroke-dasharray: none; stroke-linecap: butt; stroke-dashoffset: 0; stroke-linejoin: miter; stroke-miterlimit: 4; fill: rgb(28,24,24); fill-rule: nonzero; opacity: 1;" vector-effect="non-scaling-stroke"  transform=" translate(-5795, -4874.5)" d="M 5280 4875 L 5280 4399 L 5373 4402 L 5465 4405 L 5470 4718 L 5475 5031 L 5595 4856 L 5715 4681 L 5797 4680 L 5878 4680 L 5997 4855 L 6115 5029 L 6120 4717 L 6125 4405 L 6218 4402 L 6310 4399 L 6310 4875 L 6310 5350 L 6221 5350 L 6131 5350 L 5964 5120 L 5796 4891 L 5765 4933 C 5749 4957 5675 5060 5601 5163 L 5466 5350 L 5373 5350 L 5280 5350 L 5280 4875 z" stroke-linecap="round" />
</g>
<g transform="matrix(0.13 0 0 -0.13 770.67 599.6)"  >
<path style="stroke: none; stroke-width: 1; stroke-dasharray: none; stroke-linecap: butt; stroke-dashoffset: 0; stroke-linejoin: miter; stroke-miterlimit: 4; fill: rgb(28,24,24); fill-rule: nonzero; opacity: 1;" vector-effect="non-scaling-stroke"  transform=" translate(-6850.5, -4875)" d="M 6450 4875 L 6450 4400 L 6848 4402 L 7245 4405 L 7248 4498 L 7251 4590 L 6945 4590 L 6640 4590 L 6640 4685 L 6640 4780 L 6920 4780 L 7200 4780 L 7200 4875 L 7200 4970 L 6920 4970 L 6640 4970 L 6640 5065 L 6640 5160 L 6945 5160 L 7250 5160 L 7250 5255 L 7250 5350 L 6850 5350 L 6450 5350 L 6450 4875 z" stroke-linecap="round" />
</g>
<g transform="matrix(0.13 0 0 -0.13 413.93 754.27)"  >
<path style="stroke: none; stroke-width: 1; stroke-dasharray: none; stroke-linecap: butt; stroke-dashoffset: 0; stroke-linejoin: miter; stroke-miterlimit: 4; fill: rgb(28,24,24); fill-rule: nonzero; opacity: 0;" vector-effect="non-scaling-stroke"  transform=" translate(-4175, -3715)" d="M 4050 3715 L 4050 3450 L 4175 3450 L 4300 3450 L 4300 3715 L 4300 3980 L 4175 3980 L 4050 3980 L 4050 3715 z M 4228 3863 C 4206 3809 4185 3761 4181 3757 C 4174 3750 4090 3932 4090 3953 C 4090 3957 4130 3960 4179 3960 L 4269 3960 L 4228 3863 z M 4288 3608 L 4285 3495 L 4259 3550 C 4245 3580 4223 3631 4210 3662 L 4187 3719 L 4236 3832 L 4285 3945 L 4288 3833 C 4289 3771 4289 3669 4288 3608 z M 4119 3828 C 4141 3775 4160 3724 4160 3716 C 4160 3708 4140 3655 4115 3598 L 4071 3495 L 4070 3714 C 4070 3835 4072 3931 4074 3929 C 4076 3927 4096 3881 4119 3828 z M 4220 3590 C 4242 3538 4260 3490 4260 3483 C 4260 3473 4239 3470 4175 3470 C 4128 3470 4090 3473 4090 3478 C 4090 3489 4173 3690 4177 3686 C 4179 3685 4198 3641 4220 3590 z" stroke-linecap="round" />
</g>
<g transform="matrix(0.13 0 0 -0.13 512.6 754.27)"  >
<path style="stroke: none; stroke-width: 1; stroke-dasharray: none; stroke-linecap: butt; stroke-dashoffset: 0; stroke-linejoin: miter; stroke-miterlimit: 4; fill: rgb(28,24,24); fill-rule: nonzero; opacity: 0;" vector-effect="non-scaling-stroke"  transform=" translate(-4915, -3715)" d="M 4790 3715 L 4790 3450 L 4915 3450 L 5040 3450 L 5040 3715 L 5040 3980 L 4915 3980 L 4790 3980 L 4790 3715 z M 5000 3952 C 5000 3942 4922 3759 4915 3752 C 4913 3749 4906 3758 4901 3771 C 4896 3784 4876 3832 4856 3878 L 4821 3960 L 4910 3960 C 4960 3960 5000 3956 5000 3952 z M 5020 3713 L 5019 3495 L 4975 3598 C 4950 3655 4930 3708 4930 3716 C 4930 3730 5011 3930 5017 3930 C 5019 3930 5020 3832 5020 3713 z M 4860 3819 L 4903 3718 L 4880 3662 C 4867 3630 4846 3583 4834 3555 L 4811 3505 L 4811 3713 C 4810 3827 4812 3920 4813 3920 C 4815 3920 4836 3875 4860 3819 z M 4959 3586 C 4982 3532 5000 3484 5000 3479 C 5000 3474 4962 3470 4915 3470 C 4854 3470 4830 3473 4830 3483 C 4830 3496 4912 3692 4916 3688 C 4917 3686 4936 3641 4959 3586 z" stroke-linecap="round" />
</g>
<g transform="matrix(0.13 0 0 -0.13 610.71 754.33)"  >
<path style="stroke: none; stroke-width: 1; stroke-dasharray: none; stroke-linecap: butt; stroke-dashoffset: 0; stroke-linejoin: miter; stroke-miterlimit: 4; fill: rgb(28,24,24); fill-rule: nonzero; opacity: 0;" vector-effect="non-scaling-stroke"  transform=" translate(-5650.81, -3714.5)" d="M 5525 3967 C 5522 3960 5521 3842 5522 3705 L 5525 3455 L 5653 3452 L 5780 3449 L 5780 3715 L 5780 3980 L 5655 3980 C 5563 3980 5528 3977 5525 3967 z M 5737 3948 C 5691 3829 5655 3751 5649 3757 C 5642 3764 5560 3949 5560 3957 C 5560 3959 5601 3960 5651 3960 C 5720 3960 5741 3957 5737 3948 z M 5758 3608 L 5755 3495 L 5708 3607 L 5661 3719 L 5708 3828 L 5755 3937 L 5758 3829 C 5759 3769 5759 3669 5758 3608 z M 5599 3815 L 5641 3715 L 5595 3611 C 5570 3553 5547 3504 5545 3501 C 5542 3499 5540 3595 5540 3715 C 5540 3836 5544 3930 5548 3925 C 5553 3919 5576 3870 5599 3815 z M 5699 3581 C 5721 3526 5740 3479 5740 3476 C 5740 3473 5699 3470 5649 3470 C 5580 3470 5559 3473 5563 3483 C 5594 3564 5646 3680 5651 3680 C 5655 3680 5676 3635 5699 3581 z" stroke-linecap="round" />
</g>
</svg>